<?xml version="1.0" encoding="UTF-8"?>
<svg enable-background="new 0 0 138.218 138.177" viewBox="0 0 138.218 138.177" xmlns="http://www.w3.org/2000/svg">
 <defs>
  <radialGradient id="a" cx="69.124" cy="69.065" r="64.235" gradientUnits="userSpaceOnUse">
   <stop stop-color="#f28888" offset="0"/>
   <stop stop-color="#d82a2a" offset="1"/>
  </radialGradient>
 </defs>
 <path d="m0 69.065c0 35.214 27.621 65.603 62.715 68.829 35.105 3.229 67.956-21.459 74.378-56.175 6.42-34.713-15.243-69.677-49.261-79.215-34.029-9.543-70.799 8.985-83.349 42.017-2.971 7.823-4.483 16.176-4.483 24.544" fill="#970f00"/>
 <path d="m4.889 69.065c0 35.007 29.229 64.235 64.235 64.235s64.235-29.229 64.235-64.235-29.228-64.235-64.235-64.235-64.235 29.229-64.235 64.235" fill="url(#a)"/>
 <path d="m11.084 44.097c-5.19 30.251 12.878 60.639 41.932 70.538 30.815 10.499 65.49-5.02 78.377-34.867-6.193 36.122-43.333 59.869-78.723 50.318-36.539-9.859-56.646-51.149-41.586-85.989" fill="#b20d0d"/>
 <path d="m29.004,40.551c8.885,1.837 19.112-10.748 26.814-13.949 14.39-5.983 32.366-3.205 45.403,4.941 13.79,8.616 23.599,25.164 25.107,41.411 .005.046.005.056 0,.025-1.018-9.837-.33-19.086-4.076-28.597-6.206-15.761-19.633-28.104-35.816-33.063-16.735-5.126-35.035-1.864-49.452,7.907-4.451,3.017-21.586,18.508-7.98,21.325" fill="#ef5656"/>
 <path d="m41.353,38.912c-.396,4.902 3.925,12.926 9.488,7.708 3.655-3.428 4.362-8.651 8.857-11.49 7.583-4.786 24.909-1.813 24.563,9.629-.356,11.801-15.927,13.916-21.827,21.152-3.735,4.579-4.019,11.782-3.05,17.342 .511,2.935 1.494,6.581 4.052,8.434 2.641,1.908 6.164,1.199 7.072-2.024 1.243-4.425.712-8.977 2.849-13.208 3.343-6.62 9.775-7.196 15.583-10.534 11.126-6.394 12.723-22.137 7.223-32.742-10.195-19.66-52.731-20.105-54.81,5.733m5.138,7.101c-4.311-.616-3.367-7.666-2.37-10.537 1.396-4.024 4.237-7.436 7.752-9.8 10.194-6.852 26.994-6.67 36.593,1.146 8.707,7.086 11.359,20.414 6.137,30.353-5.745,10.929-20.963,8.967-24.467,22.222-.605,2.291-.445,11.392-3.287,11.343-6.341-.107-6.207-11.738-5.682-15.902 1.647-13.085 18.688-13.961 23.976-25.559 4.285-9.401-5.632-17.577-14.392-18.526-5.407-.586-11.5,1.205-15.213,5.279-2.522,2.766-4.525,10.627-9.047,9.981" fill="#970f00"/>
 <path d="m55.374 106.92c0 14.765 21.217 14.765 21.217 0 0-14.764-21.217-14.764-21.217 0m1.991 0c0-12.196 17.235-12.196 17.235 0s-17.235 12.198-17.235 0" fill="#970f00"/>
 <path d="m85.041,66.535c-6.247,1.905-11.614,5.75-13.653,12.156-1.122,3.524-.268,9.059-2.459,12.088-2.731,3.771-6.946-2.063-7.731-4.354-1.988-5.803-2.06-14.021 1.533-19.249 5.128-7.46 29.476-13.695 21.128-27.541-4.814-7.988-16.865-10.174-24.564-5.44-3.408,2.094-10.824,18.911-15.827,10.756-5.027-8.192 3.936-18.537 10.818-21.839 12.104-5.81 29.911-4.283 38.571,6.794 6.45,8.247 7.407,20.938 1.413,29.706-2.227,3.259-5.439,5.765-9.229,6.923" fill="#fff"/>
 <path d="m75.597 106.92c0 13.483-19.229 13.483-19.229 0s19.229-13.482 19.229 0" fill="#fff"/>
</svg>
