<svg width="486" height="277" viewBox="0 0 486 277" fill="none" xmlns="http://www.w3.org/2000/svg">
<rect width="486" height="277" fill="white"/>
<rect x="124.486" y="60.8619" width="200" height="130" rx="4" fill="#F7B0BC"/>
<path d="M141.029 90.8619H138.849V76.4127L134.478 78.0181V76.0494L140.689 73.7173H141.029V90.8619Z" fill="#171515"/>
<path d="M187.818 115.799L193.396 129.721L198.974 115.799H201.892V132.862H199.642V126.217L199.853 119.045L194.251 132.862H192.529L186.939 119.081L187.161 126.217V132.862H184.911V115.799H187.818ZM205.864 132.862V115.799H210.681C212.165 115.799 213.478 116.128 214.618 116.784C215.759 117.44 216.638 118.374 217.255 119.585C217.88 120.795 218.196 122.186 218.204 123.756V124.846C218.204 126.456 217.892 127.866 217.267 129.077C216.65 130.288 215.763 131.217 214.607 131.866C213.458 132.514 212.118 132.846 210.587 132.862H205.864ZM208.114 117.651V131.022H210.482C212.216 131.022 213.564 130.483 214.525 129.405C215.493 128.327 215.978 126.792 215.978 124.799V123.803C215.978 121.866 215.521 120.362 214.607 119.292C213.7 118.213 212.411 117.667 210.739 117.651H208.114ZM232.714 132.862L230.65 127.558H223.858L221.818 132.862H219.634L226.33 115.654H228.274L234.946 132.862H232.714ZM228.082 120.454C228.034 120.326 227.954 120.094 227.842 119.758C227.73 119.422 227.618 119.078 227.506 118.726C227.41 118.358 227.33 118.078 227.266 117.886C227.154 118.382 227.026 118.87 226.882 119.35C226.738 119.814 226.618 120.182 226.522 120.454L224.578 125.638H230.002L228.082 120.454ZM226.162 114.046C225.954 113.678 225.674 113.286 225.322 112.87C224.97 112.438 224.602 112.014 224.218 111.598C223.834 111.182 223.498 110.822 223.21 110.518V110.206H224.65C225.066 110.478 225.498 110.806 225.946 111.19C226.394 111.574 226.818 111.982 227.218 112.414C227.65 111.982 228.09 111.574 228.538 111.19C228.986 110.806 229.418 110.478 229.834 110.206H231.322V110.518C231.018 110.822 230.666 111.182 230.266 111.598C229.882 112.014 229.506 112.438 229.138 112.87C228.786 113.286 228.514 113.678 228.322 114.046H226.162ZM250.056 132.862H247.794L239.204 119.713V132.862H236.943V115.799H239.204L247.818 129.006V115.799H250.056V132.862ZM265.489 117.651H260.005V132.862H257.767V117.651H252.294V115.799H265.489V117.651Z" fill="#171515"/>
<path d="M227.673 157.788V159.628H227.275C225.587 159.659 224.243 160.159 223.243 161.128C222.243 162.096 221.665 163.46 221.509 165.217C222.407 164.186 223.634 163.67 225.189 163.67C226.673 163.67 227.857 164.194 228.739 165.241C229.63 166.288 230.075 167.639 230.075 169.295C230.075 171.053 229.595 172.46 228.634 173.514C227.681 174.569 226.4 175.096 224.79 175.096C223.157 175.096 221.833 174.471 220.818 173.221C219.802 171.963 219.294 170.346 219.294 168.37V167.538C219.294 164.397 219.962 161.999 221.298 160.342C222.642 158.678 224.638 157.827 227.286 157.788H227.673ZM224.825 165.475C224.083 165.475 223.4 165.698 222.775 166.143C222.15 166.588 221.716 167.147 221.474 167.819V168.616C221.474 170.022 221.79 171.155 222.423 172.014C223.056 172.874 223.845 173.303 224.79 173.303C225.767 173.303 226.532 172.944 227.087 172.225C227.65 171.506 227.931 170.565 227.931 169.401C227.931 168.229 227.646 167.284 227.075 166.565C226.513 165.838 225.763 165.475 224.825 165.475Z" fill="#D00C0C"/>
<path d="M54.1174 144.614C53.6877 144.961 53.6207 145.591 53.9677 146.021C54.3147 146.45 54.9443 146.517 55.374 146.17L54.1174 144.614ZM132.994 83.1058C133.053 82.5566 132.655 82.0641 132.106 82.0056L123.156 81.0532C122.607 80.9947 122.115 81.3925 122.056 81.9417C121.998 82.4909 122.396 82.9835 122.945 83.0419L130.9 83.8886L130.053 91.8436C129.995 92.3928 130.393 92.8854 130.942 92.9438C131.491 93.0023 131.983 92.6045 132.042 92.0553L132.994 83.1058ZM55.374 146.17L132.628 83.778L131.372 82.222L54.1174 144.614L55.374 146.17Z" fill="#061651"/>
<path d="M224.072 228C224.072 228.552 224.52 229 225.072 229C225.624 229 226.072 228.552 226.072 228H224.072ZM225.779 179.747C225.388 179.356 224.755 179.356 224.365 179.747L218.001 186.111C217.61 186.501 217.61 187.135 218.001 187.525C218.391 187.916 219.025 187.916 219.415 187.525L225.072 181.868L230.729 187.525C231.119 187.916 231.752 187.916 232.143 187.525C232.533 187.135 232.533 186.501 232.143 186.111L225.779 179.747ZM226.072 228V180.454H224.072V228H226.072Z" fill="#061651"/>
<path d="M346 126C346.552 126 347 125.552 347 125C347 124.448 346.552 124 346 124L346 126ZM267.293 124.293C266.902 124.683 266.902 125.317 267.293 125.707L273.657 132.071C274.047 132.462 274.681 132.462 275.071 132.071C275.462 131.681 275.462 131.047 275.071 130.657L269.414 125L275.071 119.343C275.462 118.953 275.462 118.319 275.071 117.929C274.681 117.538 274.047 117.538 273.657 117.929L267.293 124.293ZM346 124L268 124L268 126L346 126L346 124Z" fill="#061651"/>
<path d="M310.553 27.8331C311.013 27.5275 311.139 26.9069 310.833 26.4468C310.528 25.9867 309.907 25.8614 309.447 26.1669L310.553 27.8331ZM230.02 79.2606C229.91 79.802 230.261 80.3295 230.802 80.4388L239.624 82.2199C240.165 82.3292 240.693 81.979 240.802 81.4376C240.911 80.8963 240.561 80.3688 240.02 80.2595L232.178 78.6762L233.761 70.8345C233.871 70.2931 233.52 69.7656 232.979 69.6563C232.438 69.547 231.91 69.8973 231.801 70.4387L230.02 79.2606ZM309.447 26.1669L230.447 78.6255L231.553 80.2916L310.553 27.8331L309.447 26.1669Z" fill="#061651"/>
<path d="M14.6836 165V152.203H18.2959C19.4092 152.203 20.3936 152.449 21.249 152.941C22.1045 153.434 22.7637 154.134 23.2266 155.042C23.6953 155.95 23.9326 156.993 23.9385 158.171V158.988C23.9385 160.195 23.7041 161.253 23.2354 162.161C22.7725 163.069 22.1074 163.767 21.2402 164.253C20.3789 164.739 19.374 164.988 18.2256 165H14.6836ZM16.3711 153.592V163.62H18.1465C19.4473 163.62 20.458 163.216 21.1787 162.407C21.9053 161.599 22.2686 160.447 22.2686 158.953V158.206C22.2686 156.753 21.9258 155.625 21.2402 154.822C20.5605 154.014 19.5938 153.604 18.3398 153.592H16.3711ZM28.0078 165H26.373V155.49H28.0078V165ZM28.0254 151.509H29.9941L27.6387 154.093H26.3291L28.0254 151.509ZM36.5596 165C36.4658 164.812 36.3896 164.479 36.3311 163.998C35.5752 164.783 34.6729 165.176 33.624 165.176C32.6865 165.176 31.916 164.912 31.3125 164.385C30.7148 163.852 30.416 163.178 30.416 162.363C30.416 161.373 30.791 160.605 31.541 160.061C32.2969 159.51 33.3574 159.234 34.7227 159.234H36.3047V158.487C36.3047 157.919 36.1348 157.468 35.7949 157.134C35.4551 156.794 34.9541 156.624 34.292 156.624C33.7119 156.624 33.2256 156.771 32.833 157.063C32.4404 157.356 32.2441 157.711 32.2441 158.127H30.6094C30.6094 157.652 30.7764 157.195 31.1104 156.756C31.4502 156.311 31.9072 155.959 32.4814 155.701C33.0615 155.443 33.6973 155.314 34.3887 155.314C35.4844 155.314 36.3428 155.59 36.9639 156.141C37.585 156.686 37.9072 157.438 37.9307 158.399V162.776C37.9307 163.649 38.042 164.344 38.2646 164.859V165H36.5596ZM33.8613 163.761C34.3711 163.761 34.8545 163.629 35.3115 163.365C35.7686 163.102 36.0996 162.759 36.3047 162.337V160.386H35.0303C33.0381 160.386 32.042 160.969 32.042 162.135C32.042 162.645 32.2119 163.043 32.5518 163.33C32.8916 163.617 33.3281 163.761 33.8613 163.761ZM44.5488 160.166C44.5488 158.707 44.8945 157.535 45.5859 156.65C46.2773 155.76 47.1826 155.314 48.3018 155.314C49.415 155.314 50.2969 155.695 50.9473 156.457V151.5H52.5732V165H51.0791L51 163.98C50.3496 164.777 49.4443 165.176 48.2842 165.176C47.1826 165.176 46.2832 164.725 45.5859 163.822C44.8945 162.92 44.5488 161.742 44.5488 160.289V160.166ZM46.1748 160.351C46.1748 161.429 46.3975 162.272 46.8428 162.882C47.2881 163.491 47.9033 163.796 48.6885 163.796C49.7197 163.796 50.4727 163.333 50.9473 162.407V158.039C50.4609 157.143 49.7139 156.694 48.7061 156.694C47.9092 156.694 47.2881 157.002 46.8428 157.617C46.3975 158.232 46.1748 159.144 46.1748 160.351ZM59.0508 165.176C57.7617 165.176 56.7129 164.754 55.9043 163.91C55.0957 163.061 54.6914 161.927 54.6914 160.509V160.21C54.6914 159.267 54.8701 158.426 55.2275 157.688C55.5908 156.943 56.0947 156.363 56.7393 155.947C57.3896 155.525 58.0928 155.314 58.8486 155.314C60.085 155.314 61.0459 155.722 61.7314 156.536C62.417 157.351 62.7598 158.517 62.7598 160.034V160.711H56.3174C56.3408 161.648 56.6133 162.407 57.1348 162.987C57.6621 163.562 58.3301 163.849 59.1387 163.849C59.7129 163.849 60.1992 163.731 60.5977 163.497C60.9961 163.263 61.3447 162.952 61.6436 162.565L62.6367 163.339C61.8398 164.563 60.6445 165.176 59.0508 165.176ZM58.8486 156.65C58.1924 156.65 57.6416 156.891 57.1963 157.371C56.751 157.846 56.4756 158.514 56.3701 159.375H61.1338V159.252C61.0869 158.426 60.8643 157.787 60.4658 157.336C60.0674 156.879 59.5283 156.65 58.8486 156.65ZM66.416 165H64.79V151.5H66.416V165ZM75.9258 152.203L80.1094 162.645L84.293 152.203H86.4814V165H84.7939V160.017L84.9521 154.638L80.751 165H79.459L75.2666 154.664L75.4336 160.017V165H73.7461V152.203H75.9258ZM93.1523 165.176C91.8633 165.176 90.8145 164.754 90.0059 163.91C89.1973 163.061 88.793 161.927 88.793 160.509V160.21C88.793 159.267 88.9717 158.426 89.3291 157.688C89.6924 156.943 90.1963 156.363 90.8408 155.947C91.4912 155.525 92.1943 155.314 92.9502 155.314C94.1865 155.314 95.1475 155.722 95.833 156.536C96.5186 157.351 96.8613 158.517 96.8613 160.034V160.711H90.4189C90.4424 161.648 90.7148 162.407 91.2363 162.987C91.7637 163.562 92.4316 163.849 93.2402 163.849C93.8145 163.849 94.3008 163.731 94.6992 163.497C95.0977 163.263 95.4463 162.952 95.7451 162.565L96.7383 163.339C95.9414 164.563 94.7461 165.176 93.1523 165.176ZM92.9502 156.65C92.2939 156.65 91.7432 156.891 91.2979 157.371C90.8525 157.846 90.5771 158.514 90.4717 159.375H95.2354V159.252C95.1885 158.426 94.9658 157.787 94.5674 157.336C94.1689 156.879 93.6299 156.65 92.9502 156.65ZM104.288 162.478C104.288 162.038 104.121 161.698 103.787 161.458C103.459 161.212 102.882 161.001 102.056 160.825C101.235 160.649 100.582 160.438 100.096 160.192C99.6152 159.946 99.2578 159.653 99.0234 159.313C98.7949 158.974 98.6807 158.569 98.6807 158.101C98.6807 157.321 99.0088 156.662 99.665 156.123C100.327 155.584 101.171 155.314 102.196 155.314C103.274 155.314 104.147 155.593 104.815 156.149C105.489 156.706 105.826 157.418 105.826 158.285H104.191C104.191 157.84 104.001 157.456 103.62 157.134C103.245 156.812 102.771 156.65 102.196 156.65C101.604 156.65 101.142 156.779 100.808 157.037C100.474 157.295 100.307 157.632 100.307 158.048C100.307 158.44 100.462 158.736 100.772 158.936C101.083 159.135 101.643 159.325 102.451 159.507C103.266 159.688 103.925 159.905 104.429 160.157C104.933 160.409 105.305 160.714 105.545 161.071C105.791 161.423 105.914 161.854 105.914 162.363C105.914 163.213 105.574 163.896 104.895 164.411C104.215 164.921 103.333 165.176 102.249 165.176C101.487 165.176 100.813 165.041 100.228 164.771C99.6416 164.502 99.1816 164.127 98.8477 163.646C98.5195 163.16 98.3555 162.636 98.3555 162.073H99.9814C100.011 162.618 100.228 163.052 100.632 163.374C101.042 163.69 101.581 163.849 102.249 163.849C102.864 163.849 103.356 163.726 103.726 163.479C104.101 163.228 104.288 162.894 104.288 162.478Z" fill="black"/>
<path d="M147.485 243V230.203H151.098C152.211 230.203 153.195 230.449 154.051 230.941C154.906 231.434 155.565 232.134 156.028 233.042C156.497 233.95 156.734 234.993 156.74 236.171V236.988C156.74 238.195 156.506 239.253 156.037 240.161C155.574 241.069 154.909 241.767 154.042 242.253C153.181 242.739 152.176 242.988 151.027 243H147.485ZM149.173 231.592V241.62H150.948C152.249 241.62 153.26 241.216 153.98 240.407C154.707 239.599 155.07 238.447 155.07 236.953V236.206C155.07 234.753 154.728 233.625 154.042 232.822C153.362 232.014 152.396 231.604 151.142 231.592H149.173ZM160.81 243H159.175V233.49H160.81V243ZM160.827 229.509H162.796L160.44 232.093H159.131L160.827 229.509ZM169.361 243C169.268 242.812 169.191 242.479 169.133 241.998C168.377 242.783 167.475 243.176 166.426 243.176C165.488 243.176 164.718 242.912 164.114 242.385C163.517 241.852 163.218 241.178 163.218 240.363C163.218 239.373 163.593 238.605 164.343 238.061C165.099 237.51 166.159 237.234 167.524 237.234H169.106V236.487C169.106 235.919 168.937 235.468 168.597 235.134C168.257 234.794 167.756 234.624 167.094 234.624C166.514 234.624 166.027 234.771 165.635 235.063C165.242 235.356 165.046 235.711 165.046 236.127H163.411C163.411 235.652 163.578 235.195 163.912 234.756C164.252 234.311 164.709 233.959 165.283 233.701C165.863 233.443 166.499 233.314 167.19 233.314C168.286 233.314 169.145 233.59 169.766 234.141C170.387 234.686 170.709 235.438 170.732 236.399V240.776C170.732 241.649 170.844 242.344 171.066 242.859V243H169.361ZM166.663 241.761C167.173 241.761 167.656 241.629 168.113 241.365C168.57 241.102 168.901 240.759 169.106 240.337V238.386H167.832C165.84 238.386 164.844 238.969 164.844 240.135C164.844 240.645 165.014 241.043 165.354 241.33C165.693 241.617 166.13 241.761 166.663 241.761ZM177.351 238.166C177.351 236.707 177.696 235.535 178.388 234.65C179.079 233.76 179.984 233.314 181.104 233.314C182.217 233.314 183.099 233.695 183.749 234.457V229.5H185.375V243H183.881L183.802 241.98C183.151 242.777 182.246 243.176 181.086 243.176C179.984 243.176 179.085 242.725 178.388 241.822C177.696 240.92 177.351 239.742 177.351 238.289V238.166ZM178.977 238.351C178.977 239.429 179.199 240.272 179.645 240.882C180.09 241.491 180.705 241.796 181.49 241.796C182.521 241.796 183.274 241.333 183.749 240.407V236.039C183.263 235.143 182.516 234.694 181.508 234.694C180.711 234.694 180.09 235.002 179.645 235.617C179.199 236.232 178.977 237.144 178.977 238.351ZM191.853 243.176C190.563 243.176 189.515 242.754 188.706 241.91C187.897 241.061 187.493 239.927 187.493 238.509V238.21C187.493 237.267 187.672 236.426 188.029 235.688C188.393 234.943 188.896 234.363 189.541 233.947C190.191 233.525 190.895 233.314 191.65 233.314C192.887 233.314 193.848 233.722 194.533 234.536C195.219 235.351 195.562 236.517 195.562 238.034V238.711H189.119C189.143 239.648 189.415 240.407 189.937 240.987C190.464 241.562 191.132 241.849 191.94 241.849C192.515 241.849 193.001 241.731 193.399 241.497C193.798 241.263 194.146 240.952 194.445 240.565L195.438 241.339C194.642 242.563 193.446 243.176 191.853 243.176ZM191.65 234.65C190.994 234.65 190.443 234.891 189.998 235.371C189.553 235.846 189.277 236.514 189.172 237.375H193.936V237.252C193.889 236.426 193.666 235.787 193.268 235.336C192.869 234.879 192.33 234.65 191.65 234.65ZM203.683 243H202.057V229.5H203.683V243ZM212.164 243C212.07 242.812 211.994 242.479 211.936 241.998C211.18 242.783 210.277 243.176 209.229 243.176C208.291 243.176 207.521 242.912 206.917 242.385C206.319 241.852 206.021 241.178 206.021 240.363C206.021 239.373 206.396 238.605 207.146 238.061C207.901 237.51 208.962 237.234 210.327 237.234H211.909V236.487C211.909 235.919 211.739 235.468 211.399 235.134C211.06 234.794 210.559 234.624 209.896 234.624C209.316 234.624 208.83 234.771 208.438 235.063C208.045 235.356 207.849 235.711 207.849 236.127H206.214C206.214 235.652 206.381 235.195 206.715 234.756C207.055 234.311 207.512 233.959 208.086 233.701C208.666 233.443 209.302 233.314 209.993 233.314C211.089 233.314 211.947 233.59 212.568 234.141C213.189 234.686 213.512 235.438 213.535 236.399V240.776C213.535 241.649 213.646 242.344 213.869 242.859V243H212.164ZM209.466 241.761C209.976 241.761 210.459 241.629 210.916 241.365C211.373 241.102 211.704 240.759 211.909 240.337V238.386H210.635C208.643 238.386 207.646 238.969 207.646 240.135C207.646 240.645 207.816 241.043 208.156 241.33C208.496 241.617 208.933 241.761 209.466 241.761ZM226.086 240.478C226.086 240.038 225.919 239.698 225.585 239.458C225.257 239.212 224.68 239.001 223.854 238.825C223.033 238.649 222.38 238.438 221.894 238.192C221.413 237.946 221.056 237.653 220.821 237.313C220.593 236.974 220.479 236.569 220.479 236.101C220.479 235.321 220.807 234.662 221.463 234.123C222.125 233.584 222.969 233.314 223.994 233.314C225.072 233.314 225.945 233.593 226.613 234.149C227.287 234.706 227.624 235.418 227.624 236.285H225.989C225.989 235.84 225.799 235.456 225.418 235.134C225.043 234.812 224.568 234.65 223.994 234.65C223.402 234.65 222.939 234.779 222.605 235.037C222.271 235.295 222.104 235.632 222.104 236.048C222.104 236.44 222.26 236.736 222.57 236.936C222.881 237.135 223.44 237.325 224.249 237.507C225.063 237.688 225.723 237.905 226.227 238.157C226.73 238.409 227.103 238.714 227.343 239.071C227.589 239.423 227.712 239.854 227.712 240.363C227.712 241.213 227.372 241.896 226.692 242.411C226.013 242.921 225.131 243.176 224.047 243.176C223.285 243.176 222.611 243.041 222.025 242.771C221.439 242.502 220.979 242.127 220.646 241.646C220.317 241.16 220.153 240.636 220.153 240.073H221.779C221.809 240.618 222.025 241.052 222.43 241.374C222.84 241.69 223.379 241.849 224.047 241.849C224.662 241.849 225.154 241.726 225.523 241.479C225.898 241.228 226.086 240.894 226.086 240.478ZM233.776 243.176C232.487 243.176 231.438 242.754 230.63 241.91C229.821 241.061 229.417 239.927 229.417 238.509V238.21C229.417 237.267 229.596 236.426 229.953 235.688C230.316 234.943 230.82 234.363 231.465 233.947C232.115 233.525 232.818 233.314 233.574 233.314C234.811 233.314 235.771 233.722 236.457 234.536C237.143 235.351 237.485 236.517 237.485 238.034V238.711H231.043C231.066 239.648 231.339 240.407 231.86 240.987C232.388 241.562 233.056 241.849 233.864 241.849C234.438 241.849 234.925 241.731 235.323 241.497C235.722 241.263 236.07 240.952 236.369 240.565L237.362 241.339C236.565 242.563 235.37 243.176 233.776 243.176ZM233.574 234.65C232.918 234.65 232.367 234.891 231.922 235.371C231.477 235.846 231.201 236.514 231.096 237.375H235.859V237.252C235.812 236.426 235.59 235.787 235.191 235.336C234.793 234.879 234.254 234.65 233.574 234.65ZM240.904 233.49L240.948 234.545C241.646 233.725 242.586 233.314 243.77 233.314C245.1 233.314 246.005 233.824 246.485 234.844C246.802 234.387 247.212 234.018 247.716 233.736C248.226 233.455 248.826 233.314 249.518 233.314C251.604 233.314 252.664 234.419 252.699 236.628V243H251.073V236.725C251.073 236.045 250.918 235.538 250.607 235.204C250.297 234.864 249.775 234.694 249.043 234.694C248.439 234.694 247.938 234.876 247.54 235.239C247.142 235.597 246.91 236.08 246.846 236.689V243H245.211V236.769C245.211 235.386 244.534 234.694 243.181 234.694C242.114 234.694 241.385 235.148 240.992 236.057V243H239.366V233.49H240.904ZM261.031 243C260.938 242.812 260.861 242.479 260.803 241.998C260.047 242.783 259.145 243.176 258.096 243.176C257.158 243.176 256.388 242.912 255.784 242.385C255.187 241.852 254.888 241.178 254.888 240.363C254.888 239.373 255.263 238.605 256.013 238.061C256.769 237.51 257.829 237.234 259.194 237.234H260.776V236.487C260.776 235.919 260.606 235.468 260.267 235.134C259.927 234.794 259.426 234.624 258.764 234.624C258.184 234.624 257.697 234.771 257.305 235.063C256.912 235.356 256.716 235.711 256.716 236.127H255.081C255.081 235.652 255.248 235.195 255.582 234.756C255.922 234.311 256.379 233.959 256.953 233.701C257.533 233.443 258.169 233.314 258.86 233.314C259.956 233.314 260.814 233.59 261.436 234.141C262.057 234.686 262.379 235.438 262.402 236.399V240.776C262.402 241.649 262.514 242.344 262.736 242.859V243H261.031ZM258.333 241.761C258.843 241.761 259.326 241.629 259.783 241.365C260.24 241.102 260.571 240.759 260.776 240.337V238.386H259.502C257.51 238.386 256.514 238.969 256.514 240.135C256.514 240.645 256.684 241.043 257.023 241.33C257.363 241.617 257.8 241.761 258.333 241.761ZM266.489 233.49L266.542 234.686C267.269 233.771 268.218 233.314 269.39 233.314C271.399 233.314 272.413 234.448 272.431 236.716V243H270.805V236.707C270.799 236.021 270.641 235.515 270.33 235.187C270.025 234.858 269.548 234.694 268.897 234.694C268.37 234.694 267.907 234.835 267.509 235.116C267.11 235.397 266.8 235.767 266.577 236.224V243H264.951V233.49H266.489ZM280.754 243C280.66 242.812 280.584 242.479 280.525 241.998C279.77 242.783 278.867 243.176 277.818 243.176C276.881 243.176 276.11 242.912 275.507 242.385C274.909 241.852 274.61 241.178 274.61 240.363C274.61 239.373 274.985 238.605 275.735 238.061C276.491 237.51 277.552 237.234 278.917 237.234H280.499V236.487C280.499 235.919 280.329 235.468 279.989 235.134C279.649 234.794 279.148 234.624 278.486 234.624C277.906 234.624 277.42 234.771 277.027 235.063C276.635 235.356 276.438 235.711 276.438 236.127H274.804C274.804 235.652 274.971 235.195 275.305 234.756C275.645 234.311 276.102 233.959 276.676 233.701C277.256 233.443 277.892 233.314 278.583 233.314C279.679 233.314 280.537 233.59 281.158 234.141C281.779 234.686 282.102 235.438 282.125 236.399V240.776C282.125 241.649 282.236 242.344 282.459 242.859V243H280.754ZM278.056 241.761C278.565 241.761 279.049 241.629 279.506 241.365C279.963 241.102 280.294 240.759 280.499 240.337V238.386H279.225C277.232 238.386 276.236 238.969 276.236 240.135C276.236 240.645 276.406 241.043 276.746 241.33C277.086 241.617 277.522 241.761 278.056 241.761ZM288.743 238.166C288.743 236.707 289.089 235.535 289.78 234.65C290.472 233.76 291.377 233.314 292.496 233.314C293.609 233.314 294.491 233.695 295.142 234.457V229.5H296.768V243H295.273L295.194 241.98C294.544 242.777 293.639 243.176 292.479 243.176C291.377 243.176 290.478 242.725 289.78 241.822C289.089 240.92 288.743 239.742 288.743 238.289V238.166ZM290.369 238.351C290.369 239.429 290.592 240.272 291.037 240.882C291.482 241.491 292.098 241.796 292.883 241.796C293.914 241.796 294.667 241.333 295.142 240.407V236.039C294.655 235.143 293.908 234.694 292.9 234.694C292.104 234.694 291.482 235.002 291.037 235.617C290.592 236.232 290.369 237.144 290.369 238.351ZM303.245 243.176C301.956 243.176 300.907 242.754 300.099 241.91C299.29 241.061 298.886 239.927 298.886 238.509V238.21C298.886 237.267 299.064 236.426 299.422 235.688C299.785 234.943 300.289 234.363 300.934 233.947C301.584 233.525 302.287 233.314 303.043 233.314C304.279 233.314 305.24 233.722 305.926 234.536C306.611 235.351 306.954 236.517 306.954 238.034V238.711H300.512C300.535 239.648 300.808 240.407 301.329 240.987C301.856 241.562 302.524 241.849 303.333 241.849C303.907 241.849 304.394 241.731 304.792 241.497C305.19 241.263 305.539 240.952 305.838 240.565L306.831 241.339C306.034 242.563 304.839 243.176 303.245 243.176ZM303.043 234.65C302.387 234.65 301.836 234.891 301.391 235.371C300.945 235.846 300.67 236.514 300.564 237.375H305.328V237.252C305.281 236.426 305.059 235.787 304.66 235.336C304.262 234.879 303.723 234.65 303.043 234.65ZM310.61 243H308.984V229.5H310.61V243ZM151.045 262.849C151.625 262.849 152.132 262.673 152.565 262.321C152.999 261.97 153.239 261.53 153.286 261.003H154.824C154.795 261.548 154.607 262.066 154.262 262.559C153.916 263.051 153.453 263.443 152.873 263.736C152.299 264.029 151.689 264.176 151.045 264.176C149.75 264.176 148.719 263.745 147.951 262.884C147.189 262.017 146.809 260.833 146.809 259.333V259.061C146.809 258.135 146.979 257.312 147.318 256.591C147.658 255.87 148.145 255.311 148.777 254.912C149.416 254.514 150.169 254.314 151.036 254.314C152.103 254.314 152.987 254.634 153.69 255.272C154.399 255.911 154.777 256.74 154.824 257.76H153.286C153.239 257.145 153.005 256.641 152.583 256.248C152.167 255.85 151.651 255.65 151.036 255.65C150.21 255.65 149.568 255.949 149.111 256.547C148.66 257.139 148.435 257.997 148.435 259.122V259.43C148.435 260.525 148.66 261.369 149.111 261.961C149.562 262.553 150.207 262.849 151.045 262.849ZM162.523 264C162.43 263.812 162.354 263.479 162.295 262.998C161.539 263.783 160.637 264.176 159.588 264.176C158.65 264.176 157.88 263.912 157.276 263.385C156.679 262.852 156.38 262.178 156.38 261.363C156.38 260.373 156.755 259.605 157.505 259.061C158.261 258.51 159.321 258.234 160.687 258.234H162.269V257.487C162.269 256.919 162.099 256.468 161.759 256.134C161.419 255.794 160.918 255.624 160.256 255.624C159.676 255.624 159.189 255.771 158.797 256.063C158.404 256.356 158.208 256.711 158.208 257.127H156.573C156.573 256.652 156.74 256.195 157.074 255.756C157.414 255.311 157.871 254.959 158.445 254.701C159.025 254.443 159.661 254.314 160.353 254.314C161.448 254.314 162.307 254.59 162.928 255.141C163.549 255.686 163.871 256.438 163.895 257.399V261.776C163.895 262.649 164.006 263.344 164.229 263.859V264H162.523ZM159.825 262.761C160.335 262.761 160.818 262.629 161.275 262.365C161.732 262.102 162.063 261.759 162.269 261.337V259.386H160.994C159.002 259.386 158.006 259.969 158.006 261.135C158.006 261.645 158.176 262.043 158.516 262.33C158.855 262.617 159.292 262.761 159.825 262.761ZM168.21 264H166.584V250.5H168.21V264ZM174.767 264.176C173.478 264.176 172.429 263.754 171.62 262.91C170.812 262.061 170.407 260.927 170.407 259.509V259.21C170.407 258.267 170.586 257.426 170.943 256.688C171.307 255.943 171.811 255.363 172.455 254.947C173.105 254.525 173.809 254.314 174.564 254.314C175.801 254.314 176.762 254.722 177.447 255.536C178.133 256.351 178.476 257.517 178.476 259.034V259.711H172.033C172.057 260.648 172.329 261.407 172.851 261.987C173.378 262.562 174.046 262.849 174.854 262.849C175.429 262.849 175.915 262.731 176.313 262.497C176.712 262.263 177.061 261.952 177.359 261.565L178.353 262.339C177.556 263.563 176.36 264.176 174.767 264.176ZM174.564 255.65C173.908 255.65 173.357 255.891 172.912 256.371C172.467 256.846 172.191 257.514 172.086 258.375H176.85V258.252C176.803 257.426 176.58 256.787 176.182 256.336C175.783 255.879 175.244 255.65 174.564 255.65ZM181.903 254.49L181.956 255.686C182.683 254.771 183.632 254.314 184.804 254.314C186.813 254.314 187.827 255.448 187.845 257.716V264H186.219V257.707C186.213 257.021 186.055 256.515 185.744 256.187C185.439 255.858 184.962 255.694 184.312 255.694C183.784 255.694 183.321 255.835 182.923 256.116C182.524 256.397 182.214 256.767 181.991 257.224V264H180.365V254.49H181.903ZM189.901 259.166C189.901 257.707 190.247 256.535 190.938 255.65C191.63 254.76 192.535 254.314 193.654 254.314C194.768 254.314 195.649 254.695 196.3 255.457V250.5H197.926V264H196.432L196.353 262.98C195.702 263.777 194.797 264.176 193.637 264.176C192.535 264.176 191.636 263.725 190.938 262.822C190.247 261.92 189.901 260.742 189.901 259.289V259.166ZM191.527 259.351C191.527 260.429 191.75 261.272 192.195 261.882C192.641 262.491 193.256 262.796 194.041 262.796C195.072 262.796 195.825 262.333 196.3 261.407V257.039C195.813 256.143 195.066 255.694 194.059 255.694C193.262 255.694 192.641 256.002 192.195 256.617C191.75 257.232 191.527 258.144 191.527 259.351ZM206.328 264C206.234 263.812 206.158 263.479 206.1 262.998C205.344 263.783 204.441 264.176 203.393 264.176C202.455 264.176 201.685 263.912 201.081 263.385C200.483 262.852 200.185 262.178 200.185 261.363C200.185 260.373 200.56 259.605 201.31 259.061C202.065 258.51 203.126 258.234 204.491 258.234H206.073V257.487C206.073 256.919 205.903 256.468 205.563 256.134C205.224 255.794 204.723 255.624 204.061 255.624C203.48 255.624 202.994 255.771 202.602 256.063C202.209 256.356 202.013 256.711 202.013 257.127H200.378C200.378 256.652 200.545 256.195 200.879 255.756C201.219 255.311 201.676 254.959 202.25 254.701C202.83 254.443 203.466 254.314 204.157 254.314C205.253 254.314 206.111 254.59 206.732 255.141C207.354 255.686 207.676 256.438 207.699 257.399V261.776C207.699 262.649 207.811 263.344 208.033 263.859V264H206.328ZM203.63 262.761C204.14 262.761 204.623 262.629 205.08 262.365C205.537 262.102 205.868 261.759 206.073 261.337V259.386H204.799C202.807 259.386 201.811 259.969 201.811 261.135C201.811 261.645 201.98 262.043 202.32 262.33C202.66 262.617 203.097 262.761 203.63 262.761ZM214.845 255.949C214.599 255.908 214.332 255.888 214.045 255.888C212.979 255.888 212.255 256.342 211.874 257.25V264H210.248V254.49H211.83L211.856 255.589C212.39 254.739 213.146 254.314 214.124 254.314C214.44 254.314 214.681 254.355 214.845 254.438V255.949ZM218.114 264H216.488V254.49H218.114V264ZM216.356 251.968C216.356 251.704 216.436 251.481 216.594 251.3C216.758 251.118 216.998 251.027 217.314 251.027C217.631 251.027 217.871 251.118 218.035 251.3C218.199 251.481 218.281 251.704 218.281 251.968C218.281 252.231 218.199 252.451 218.035 252.627C217.871 252.803 217.631 252.891 217.314 252.891C216.998 252.891 216.758 252.803 216.594 252.627C216.436 252.451 216.356 252.231 216.356 251.968ZM220.294 259.157C220.294 258.226 220.476 257.388 220.839 256.644C221.208 255.899 221.718 255.325 222.368 254.921C223.024 254.517 223.771 254.314 224.609 254.314C225.904 254.314 226.95 254.763 227.747 255.659C228.55 256.556 228.951 257.748 228.951 259.236V259.351C228.951 260.276 228.772 261.108 228.415 261.847C228.063 262.579 227.557 263.15 226.895 263.561C226.238 263.971 225.482 264.176 224.627 264.176C223.338 264.176 222.292 263.728 221.489 262.831C220.692 261.935 220.294 260.748 220.294 259.271V259.157ZM221.929 259.351C221.929 260.405 222.172 261.252 222.658 261.891C223.15 262.529 223.807 262.849 224.627 262.849C225.453 262.849 226.109 262.526 226.596 261.882C227.082 261.231 227.325 260.323 227.325 259.157C227.325 258.114 227.076 257.271 226.578 256.626C226.086 255.976 225.43 255.65 224.609 255.65C223.807 255.65 223.159 255.97 222.667 256.608C222.175 257.247 221.929 258.161 221.929 259.351ZM236.976 262.62H244.297V264H234.98V262.734L241.994 252.592H235.095V251.203H244.016V252.442L236.976 262.62ZM252.102 264C252.008 263.812 251.932 263.479 251.873 262.998C251.117 263.783 250.215 264.176 249.166 264.176C248.229 264.176 247.458 263.912 246.854 263.385C246.257 262.852 245.958 262.178 245.958 261.363C245.958 260.373 246.333 259.605 247.083 259.061C247.839 258.51 248.899 258.234 250.265 258.234H251.847V257.487C251.847 256.919 251.677 256.468 251.337 256.134C250.997 255.794 250.496 255.624 249.834 255.624C249.254 255.624 248.768 255.771 248.375 256.063C247.982 256.356 247.786 256.711 247.786 257.127H246.151C246.151 256.652 246.318 256.195 246.652 255.756C246.992 255.311 247.449 254.959 248.023 254.701C248.604 254.443 249.239 254.314 249.931 254.314C251.026 254.314 251.885 254.59 252.506 255.141C253.127 255.686 253.449 256.438 253.473 257.399V261.776C253.473 262.649 253.584 263.344 253.807 263.859V264H252.102ZM249.403 262.761C249.913 262.761 250.396 262.629 250.854 262.365C251.311 262.102 251.642 261.759 251.847 261.337V259.386H250.572C248.58 259.386 247.584 259.969 247.584 261.135C247.584 261.645 247.754 262.043 248.094 262.33C248.434 262.617 248.87 262.761 249.403 262.761ZM264.055 259.351C264.055 260.798 263.724 261.964 263.062 262.849C262.399 263.733 261.503 264.176 260.372 264.176C259.218 264.176 258.31 263.81 257.647 263.077V267.656H256.021V254.49H257.507L257.586 255.545C258.248 254.725 259.168 254.314 260.346 254.314C261.488 254.314 262.391 254.745 263.053 255.606C263.721 256.468 264.055 257.666 264.055 259.201V259.351ZM262.429 259.166C262.429 258.094 262.2 257.247 261.743 256.626C261.286 256.005 260.659 255.694 259.862 255.694C258.878 255.694 258.14 256.131 257.647 257.004V261.548C258.134 262.415 258.878 262.849 259.88 262.849C260.659 262.849 261.277 262.541 261.734 261.926C262.197 261.305 262.429 260.385 262.429 259.166ZM265.698 259.157C265.698 258.226 265.88 257.388 266.243 256.644C266.612 255.899 267.122 255.325 267.772 254.921C268.429 254.517 269.176 254.314 270.014 254.314C271.309 254.314 272.354 254.763 273.151 255.659C273.954 256.556 274.355 257.748 274.355 259.236V259.351C274.355 260.276 274.177 261.108 273.819 261.847C273.468 262.579 272.961 263.15 272.299 263.561C271.643 263.971 270.887 264.176 270.031 264.176C268.742 264.176 267.696 263.728 266.894 262.831C266.097 261.935 265.698 260.748 265.698 259.271V259.157ZM267.333 259.351C267.333 260.405 267.576 261.252 268.062 261.891C268.555 262.529 269.211 262.849 270.031 262.849C270.857 262.849 271.514 262.526 272 261.882C272.486 261.231 272.729 260.323 272.729 259.157C272.729 258.114 272.48 257.271 271.982 256.626C271.49 255.976 270.834 255.65 270.014 255.65C269.211 255.65 268.563 255.97 268.071 256.608C267.579 257.247 267.333 258.161 267.333 259.351ZM278.601 252.188V254.49H280.376V255.747H278.601V261.645C278.601 262.025 278.68 262.312 278.838 262.506C278.996 262.693 279.266 262.787 279.646 262.787C279.834 262.787 280.092 262.752 280.42 262.682V264C279.992 264.117 279.576 264.176 279.172 264.176C278.445 264.176 277.897 263.956 277.528 263.517C277.159 263.077 276.975 262.453 276.975 261.645V255.747H275.243V254.49H276.975V252.188H278.601ZM286.229 264.176C284.94 264.176 283.892 263.754 283.083 262.91C282.274 262.061 281.87 260.927 281.87 259.509V259.21C281.87 258.267 282.049 257.426 282.406 256.688C282.77 255.943 283.273 255.363 283.918 254.947C284.568 254.525 285.271 254.314 286.027 254.314C287.264 254.314 288.225 254.722 288.91 255.536C289.596 256.351 289.938 257.517 289.938 259.034V259.711H283.496C283.52 260.648 283.792 261.407 284.313 261.987C284.841 262.562 285.509 262.849 286.317 262.849C286.892 262.849 287.378 262.731 287.776 262.497C288.175 262.263 288.523 261.952 288.822 261.565L289.815 262.339C289.019 263.563 287.823 264.176 286.229 264.176ZM286.027 255.65C285.371 255.65 284.82 255.891 284.375 256.371C283.93 256.846 283.654 257.514 283.549 258.375H288.312V258.252C288.266 257.426 288.043 256.787 287.645 256.336C287.246 255.879 286.707 255.65 286.027 255.65ZM295.643 262.849C296.223 262.849 296.729 262.673 297.163 262.321C297.597 261.97 297.837 261.53 297.884 261.003H299.422C299.393 261.548 299.205 262.066 298.859 262.559C298.514 263.051 298.051 263.443 297.471 263.736C296.896 264.029 296.287 264.176 295.643 264.176C294.348 264.176 293.316 263.745 292.549 262.884C291.787 262.017 291.406 260.833 291.406 259.333V259.061C291.406 258.135 291.576 257.312 291.916 256.591C292.256 255.87 292.742 255.311 293.375 254.912C294.014 254.514 294.767 254.314 295.634 254.314C296.7 254.314 297.585 254.634 298.288 255.272C298.997 255.911 299.375 256.74 299.422 257.76H297.884C297.837 257.145 297.603 256.641 297.181 256.248C296.765 255.85 296.249 255.65 295.634 255.65C294.808 255.65 294.166 255.949 293.709 256.547C293.258 257.139 293.032 257.997 293.032 259.122V259.43C293.032 260.525 293.258 261.369 293.709 261.961C294.16 262.553 294.805 262.849 295.643 262.849ZM300.819 259.157C300.819 258.226 301.001 257.388 301.364 256.644C301.733 255.899 302.243 255.325 302.894 254.921C303.55 254.517 304.297 254.314 305.135 254.314C306.43 254.314 307.476 254.763 308.272 255.659C309.075 256.556 309.477 257.748 309.477 259.236V259.351C309.477 260.276 309.298 261.108 308.94 261.847C308.589 262.579 308.082 263.15 307.42 263.561C306.764 263.971 306.008 264.176 305.152 264.176C303.863 264.176 302.817 263.728 302.015 262.831C301.218 261.935 300.819 260.748 300.819 259.271V259.157ZM302.454 259.351C302.454 260.405 302.697 261.252 303.184 261.891C303.676 262.529 304.332 262.849 305.152 262.849C305.979 262.849 306.635 262.526 307.121 261.882C307.607 261.231 307.851 260.323 307.851 259.157C307.851 258.114 307.602 257.271 307.104 256.626C306.611 255.976 305.955 255.65 305.135 255.65C304.332 255.65 303.685 255.97 303.192 256.608C302.7 257.247 302.454 258.161 302.454 259.351Z" fill="black"/>
<path d="M360.099 128.58H358.402L351.96 118.719V128.58H350.264V115.783H351.96L358.42 125.689V115.783H360.099V128.58ZM362.41 123.737C362.41 122.806 362.592 121.968 362.955 121.224C363.324 120.48 363.834 119.905 364.484 119.501C365.141 119.097 365.888 118.895 366.726 118.895C368.02 118.895 369.066 119.343 369.863 120.239C370.666 121.136 371.067 122.328 371.067 123.816V123.931C371.067 124.856 370.889 125.689 370.531 126.427C370.18 127.159 369.673 127.731 369.011 128.141C368.354 128.551 367.599 128.756 366.743 128.756C365.454 128.756 364.408 128.308 363.605 127.411C362.809 126.515 362.41 125.328 362.41 123.852V123.737ZM364.045 123.931C364.045 124.985 364.288 125.832 364.774 126.471C365.267 127.109 365.923 127.429 366.743 127.429C367.569 127.429 368.226 127.106 368.712 126.462C369.198 125.812 369.441 124.903 369.441 123.737C369.441 122.694 369.192 121.851 368.694 121.206C368.202 120.556 367.546 120.231 366.726 120.231C365.923 120.231 365.275 120.55 364.783 121.189C364.291 121.827 364.045 122.741 364.045 123.931ZM374.636 119.07L374.68 120.125C375.377 119.305 376.317 118.895 377.501 118.895C378.831 118.895 379.736 119.404 380.217 120.424C380.533 119.967 380.943 119.598 381.447 119.316C381.957 119.035 382.558 118.895 383.249 118.895C385.335 118.895 386.395 119.999 386.431 122.208V128.58H384.805V122.305C384.805 121.625 384.649 121.118 384.339 120.784C384.028 120.444 383.507 120.274 382.774 120.274C382.171 120.274 381.67 120.456 381.271 120.819C380.873 121.177 380.642 121.66 380.577 122.27V128.58H378.942V122.349C378.942 120.966 378.266 120.274 376.912 120.274C375.846 120.274 375.116 120.729 374.724 121.637V128.58H373.098V119.07H374.636ZM396.942 123.931C396.942 125.384 396.608 126.553 395.94 127.438C395.272 128.316 394.376 128.756 393.251 128.756C392.05 128.756 391.121 128.331 390.465 127.481L390.386 128.58H388.892V115.08H390.518V120.116C391.174 119.302 392.079 118.895 393.233 118.895C394.388 118.895 395.293 119.331 395.949 120.204C396.611 121.077 396.942 122.272 396.942 123.79V123.931ZM395.316 123.746C395.316 122.639 395.102 121.783 394.675 121.18C394.247 120.576 393.632 120.274 392.829 120.274C391.757 120.274 390.986 120.772 390.518 121.769V125.882C391.016 126.878 391.792 127.376 392.847 127.376C393.626 127.376 394.232 127.074 394.666 126.471C395.1 125.867 395.316 124.959 395.316 123.746ZM403.596 120.529C403.35 120.488 403.083 120.468 402.796 120.468C401.729 120.468 401.006 120.922 400.625 121.83V128.58H398.999V119.07H400.581L400.607 120.169C401.141 119.319 401.896 118.895 402.875 118.895C403.191 118.895 403.432 118.936 403.596 119.018V120.529ZM408.869 128.756C407.58 128.756 406.531 128.334 405.723 127.49C404.914 126.641 404.51 125.507 404.51 124.089V123.79C404.51 122.847 404.688 122.006 405.046 121.268C405.409 120.523 405.913 119.943 406.558 119.527C407.208 119.106 407.911 118.895 408.667 118.895C409.903 118.895 410.864 119.302 411.55 120.116C412.235 120.931 412.578 122.097 412.578 123.614V124.291H406.136C406.159 125.229 406.432 125.987 406.953 126.567C407.48 127.142 408.148 127.429 408.957 127.429C409.531 127.429 410.018 127.312 410.416 127.077C410.814 126.843 411.163 126.532 411.462 126.146L412.455 126.919C411.658 128.144 410.463 128.756 408.869 128.756ZM408.667 120.231C408.011 120.231 407.46 120.471 407.015 120.951C406.569 121.426 406.294 122.094 406.188 122.955H410.952V122.832C410.905 122.006 410.683 121.367 410.284 120.916C409.886 120.459 409.347 120.231 408.667 120.231ZM418.537 123.746C418.537 122.287 418.883 121.115 419.574 120.231C420.266 119.34 421.171 118.895 422.29 118.895C423.403 118.895 424.285 119.275 424.935 120.037V115.08H426.561V128.58H425.067L424.988 127.561C424.338 128.357 423.433 128.756 422.272 128.756C421.171 128.756 420.271 128.305 419.574 127.402C418.883 126.5 418.537 125.322 418.537 123.869V123.746ZM420.163 123.931C420.163 125.009 420.386 125.853 420.831 126.462C421.276 127.071 421.892 127.376 422.677 127.376C423.708 127.376 424.461 126.913 424.935 125.987V121.619C424.449 120.723 423.702 120.274 422.694 120.274C421.897 120.274 421.276 120.582 420.831 121.197C420.386 121.813 420.163 122.724 420.163 123.931ZM433.039 128.756C431.75 128.756 430.701 128.334 429.893 127.49C429.084 126.641 428.68 125.507 428.68 124.089V123.79C428.68 122.847 428.858 122.006 429.216 121.268C429.579 120.523 430.083 119.943 430.727 119.527C431.378 119.106 432.081 118.895 432.837 118.895C434.073 118.895 435.034 119.302 435.72 120.116C436.405 120.931 436.748 122.097 436.748 123.614V124.291H430.306C430.329 125.229 430.602 125.987 431.123 126.567C431.65 127.142 432.318 127.429 433.127 127.429C433.701 127.429 434.187 127.312 434.586 127.077C434.984 126.843 435.333 126.532 435.632 126.146L436.625 126.919C435.828 128.144 434.633 128.756 433.039 128.756ZM432.837 120.231C432.181 120.231 431.63 120.471 431.185 120.951C430.739 121.426 430.464 122.094 430.358 122.955H435.122V122.832C435.075 122.006 434.852 121.367 434.454 120.916C434.056 120.459 433.517 120.231 432.837 120.231ZM440.404 128.58H438.778V115.08H440.404V128.58ZM447.084 123.746C447.084 122.287 447.43 121.115 448.121 120.231C448.812 119.34 449.718 118.895 450.837 118.895C451.95 118.895 452.832 119.275 453.482 120.037V115.08H455.108V128.58H453.614L453.535 127.561C452.885 128.357 451.979 128.756 450.819 128.756C449.718 128.756 448.818 128.305 448.121 127.402C447.43 126.5 447.084 125.322 447.084 123.869V123.746ZM448.71 123.931C448.71 125.009 448.933 125.853 449.378 126.462C449.823 127.071 450.438 127.376 451.224 127.376C452.255 127.376 453.008 126.913 453.482 125.987V121.619C452.996 120.723 452.249 120.274 451.241 120.274C450.444 120.274 449.823 120.582 449.378 121.197C448.933 121.813 448.71 122.724 448.71 123.931ZM459.406 128.58H457.771V119.07H459.406V128.58ZM459.424 115.089H461.393L459.037 117.673H457.727L459.424 115.089ZM467.958 128.58C467.864 128.393 467.788 128.059 467.729 127.578C466.974 128.363 466.071 128.756 465.022 128.756C464.085 128.756 463.314 128.492 462.711 127.965C462.113 127.432 461.814 126.758 461.814 125.943C461.814 124.953 462.189 124.186 462.939 123.641C463.695 123.09 464.756 122.814 466.121 122.814H467.703V122.067C467.703 121.499 467.533 121.048 467.193 120.714C466.853 120.374 466.352 120.204 465.69 120.204C465.11 120.204 464.624 120.351 464.231 120.644C463.839 120.937 463.643 121.291 463.643 121.707H462.008C462.008 121.232 462.175 120.775 462.509 120.336C462.849 119.891 463.306 119.539 463.88 119.281C464.46 119.023 465.096 118.895 465.787 118.895C466.883 118.895 467.741 119.17 468.362 119.721C468.983 120.266 469.306 121.019 469.329 121.98V126.356C469.329 127.23 469.44 127.924 469.663 128.439V128.58H467.958ZM465.26 127.341C465.769 127.341 466.253 127.209 466.71 126.945C467.167 126.682 467.498 126.339 467.703 125.917V123.966H466.429C464.436 123.966 463.44 124.549 463.44 125.715C463.44 126.225 463.61 126.623 463.95 126.91C464.29 127.197 464.727 127.341 465.26 127.341ZM375.822 149.756C374.533 149.756 373.484 149.334 372.676 148.49C371.867 147.641 371.463 146.507 371.463 145.089V144.79C371.463 143.847 371.642 143.006 371.999 142.268C372.362 141.523 372.866 140.943 373.511 140.527C374.161 140.106 374.864 139.895 375.62 139.895C376.856 139.895 377.817 140.302 378.503 141.116C379.188 141.931 379.531 143.097 379.531 144.614V145.291H373.089C373.112 146.229 373.385 146.987 373.906 147.567C374.434 148.142 375.102 148.429 375.91 148.429C376.484 148.429 376.971 148.312 377.369 148.077C377.768 147.843 378.116 147.532 378.415 147.146L379.408 147.919C378.611 149.144 377.416 149.756 375.822 149.756ZM375.62 141.231C374.964 141.231 374.413 141.471 373.968 141.951C373.522 142.426 373.247 143.094 373.142 143.955H377.905V143.832C377.858 143.006 377.636 142.367 377.237 141.916C376.839 141.459 376.3 141.231 375.62 141.231ZM382.959 140.07L383.012 141.266C383.738 140.352 384.687 139.895 385.859 139.895C387.869 139.895 388.883 141.028 388.9 143.296V149.58H387.274V143.287C387.268 142.602 387.11 142.095 386.8 141.767C386.495 141.439 386.018 141.274 385.367 141.274C384.84 141.274 384.377 141.415 383.978 141.696C383.58 141.978 383.269 142.347 383.047 142.804V149.58H381.421V140.07H382.959ZM397.338 148.2H404.659V149.58H395.343V148.314L402.356 138.172H395.457V136.783H404.378V138.022L397.338 148.2ZM412.464 149.58C412.37 149.393 412.294 149.059 412.235 148.578C411.479 149.363 410.577 149.756 409.528 149.756C408.591 149.756 407.82 149.492 407.217 148.965C406.619 148.432 406.32 147.758 406.32 146.943C406.32 145.953 406.695 145.186 407.445 144.641C408.201 144.09 409.262 143.814 410.627 143.814H412.209V143.067C412.209 142.499 412.039 142.048 411.699 141.714C411.359 141.374 410.858 141.204 410.196 141.204C409.616 141.204 409.13 141.351 408.737 141.644C408.345 141.937 408.148 142.291 408.148 142.707H406.514C406.514 142.232 406.681 141.775 407.015 141.336C407.354 140.891 407.811 140.539 408.386 140.281C408.966 140.023 409.602 139.895 410.293 139.895C411.389 139.895 412.247 140.17 412.868 140.721C413.489 141.266 413.811 142.019 413.835 142.98V147.356C413.835 148.23 413.946 148.924 414.169 149.439V149.58H412.464ZM409.766 148.341C410.275 148.341 410.759 148.209 411.216 147.945C411.673 147.682 412.004 147.339 412.209 146.917V144.966H410.935C408.942 144.966 407.946 145.549 407.946 146.715C407.946 147.225 408.116 147.623 408.456 147.91C408.796 148.197 409.232 148.341 409.766 148.341ZM424.417 144.931C424.417 146.378 424.086 147.544 423.424 148.429C422.762 149.314 421.865 149.756 420.734 149.756C419.58 149.756 418.672 149.39 418.01 148.657V153.236H416.384V140.07H417.869L417.948 141.125C418.61 140.305 419.53 139.895 420.708 139.895C421.851 139.895 422.753 140.325 423.415 141.187C424.083 142.048 424.417 143.246 424.417 144.781V144.931ZM422.791 144.746C422.791 143.674 422.562 142.827 422.105 142.206C421.648 141.585 421.021 141.274 420.225 141.274C419.24 141.274 418.502 141.711 418.01 142.584V147.128C418.496 147.995 419.24 148.429 420.242 148.429C421.021 148.429 421.64 148.121 422.097 147.506C422.56 146.885 422.791 145.965 422.791 144.746ZM426.06 144.737C426.06 143.806 426.242 142.968 426.605 142.224C426.975 141.48 427.484 140.905 428.135 140.501C428.791 140.097 429.538 139.895 430.376 139.895C431.671 139.895 432.717 140.343 433.514 141.239C434.316 142.136 434.718 143.328 434.718 144.816V144.931C434.718 145.856 434.539 146.689 434.182 147.427C433.83 148.159 433.323 148.731 432.661 149.141C432.005 149.551 431.249 149.756 430.393 149.756C429.104 149.756 428.059 149.308 427.256 148.411C426.459 147.515 426.06 146.328 426.06 144.852V144.737ZM427.695 144.931C427.695 145.985 427.938 146.832 428.425 147.471C428.917 148.109 429.573 148.429 430.393 148.429C431.22 148.429 431.876 148.106 432.362 147.462C432.849 146.812 433.092 145.903 433.092 144.737C433.092 143.694 432.843 142.851 432.345 142.206C431.852 141.556 431.196 141.231 430.376 141.231C429.573 141.231 428.926 141.55 428.434 142.189C427.941 142.827 427.695 143.741 427.695 144.931ZM438.963 137.768V140.07H440.738V141.327H438.963V147.225C438.963 147.606 439.042 147.893 439.2 148.086C439.358 148.273 439.628 148.367 440.009 148.367C440.196 148.367 440.454 148.332 440.782 148.262V149.58C440.354 149.697 439.938 149.756 439.534 149.756C438.808 149.756 438.26 149.536 437.891 149.097C437.521 148.657 437.337 148.033 437.337 147.225V141.327H435.605V140.07H437.337V137.768H438.963ZM446.592 149.756C445.303 149.756 444.254 149.334 443.445 148.49C442.637 147.641 442.232 146.507 442.232 145.089V144.79C442.232 143.847 442.411 143.006 442.768 142.268C443.132 141.523 443.636 140.943 444.28 140.527C444.931 140.106 445.634 139.895 446.39 139.895C447.626 139.895 448.587 140.302 449.272 141.116C449.958 141.931 450.301 143.097 450.301 144.614V145.291H443.858C443.882 146.229 444.154 146.987 444.676 147.567C445.203 148.142 445.871 148.429 446.68 148.429C447.254 148.429 447.74 148.312 448.139 148.077C448.537 147.843 448.886 147.532 449.185 147.146L450.178 147.919C449.381 149.144 448.185 149.756 446.592 149.756ZM446.39 141.231C445.733 141.231 445.183 141.471 444.737 141.951C444.292 142.426 444.017 143.094 443.911 143.955H448.675V143.832C448.628 143.006 448.405 142.367 448.007 141.916C447.608 141.459 447.069 141.231 446.39 141.231ZM456.005 148.429C456.585 148.429 457.092 148.253 457.525 147.901C457.959 147.55 458.199 147.11 458.246 146.583H459.784C459.755 147.128 459.567 147.647 459.222 148.139C458.876 148.631 458.413 149.023 457.833 149.316C457.259 149.609 456.649 149.756 456.005 149.756C454.71 149.756 453.679 149.325 452.911 148.464C452.149 147.597 451.768 146.413 451.768 144.913V144.641C451.768 143.715 451.938 142.892 452.278 142.171C452.618 141.45 453.104 140.891 453.737 140.492C454.376 140.094 455.129 139.895 455.996 139.895C457.062 139.895 457.947 140.214 458.65 140.853C459.359 141.491 459.737 142.32 459.784 143.34H458.246C458.199 142.725 457.965 142.221 457.543 141.828C457.127 141.43 456.611 141.231 455.996 141.231C455.17 141.231 454.528 141.529 454.071 142.127C453.62 142.719 453.394 143.577 453.394 144.702V145.01C453.394 146.106 453.62 146.949 454.071 147.541C454.522 148.133 455.167 148.429 456.005 148.429ZM461.182 144.737C461.182 143.806 461.363 142.968 461.727 142.224C462.096 141.48 462.605 140.905 463.256 140.501C463.912 140.097 464.659 139.895 465.497 139.895C466.792 139.895 467.838 140.343 468.635 141.239C469.437 142.136 469.839 143.328 469.839 144.816V144.931C469.839 145.856 469.66 146.689 469.303 147.427C468.951 148.159 468.444 148.731 467.782 149.141C467.126 149.551 466.37 149.756 465.515 149.756C464.226 149.756 463.18 149.308 462.377 148.411C461.58 147.515 461.182 146.328 461.182 144.852V144.737ZM462.816 144.931C462.816 145.985 463.06 146.832 463.546 147.471C464.038 148.109 464.694 148.429 465.515 148.429C466.341 148.429 466.997 148.106 467.483 147.462C467.97 146.812 468.213 145.903 468.213 144.737C468.213 143.694 467.964 142.851 467.466 142.206C466.974 141.556 466.317 141.231 465.497 141.231C464.694 141.231 464.047 141.55 463.555 142.189C463.062 142.827 462.816 143.741 462.816 144.931Z" fill="black"/>
<path d="M315.256 17.2959C313.809 16.8799 312.754 16.3701 312.092 15.7666C311.436 15.1572 311.107 14.4072 311.107 13.5166C311.107 12.5088 311.509 11.6768 312.312 11.0205C313.12 10.3584 314.169 10.0273 315.458 10.0273C316.337 10.0273 317.119 10.1973 317.805 10.5371C318.496 10.877 319.029 11.3457 319.404 11.9434C319.785 12.541 319.976 13.1943 319.976 13.9033H318.279C318.279 13.1299 318.033 12.5234 317.541 12.084C317.049 11.6387 316.354 11.416 315.458 11.416C314.626 11.416 313.976 11.6006 313.507 11.9697C313.044 12.333 312.812 12.8398 312.812 13.4902C312.812 14.0117 313.032 14.4541 313.472 14.8174C313.917 15.1748 314.67 15.5029 315.73 15.8018C316.797 16.1006 317.629 16.4316 318.227 16.7949C318.83 17.1523 319.275 17.5713 319.562 18.0518C319.855 18.5322 320.002 19.0977 320.002 19.748C320.002 20.7852 319.598 21.6172 318.789 22.2441C317.98 22.8652 316.899 23.1758 315.546 23.1758C314.667 23.1758 313.847 23.0088 313.085 22.6748C312.323 22.335 311.734 21.8721 311.318 21.2861C310.908 20.7002 310.703 20.0352 310.703 19.291H312.399C312.399 20.0645 312.684 20.6768 313.252 21.1279C313.826 21.5732 314.591 21.7959 315.546 21.7959C316.437 21.7959 317.119 21.6143 317.594 21.251C318.068 20.8877 318.306 20.3926 318.306 19.7656C318.306 19.1387 318.086 18.6553 317.646 18.3154C317.207 17.9697 316.41 17.6299 315.256 17.2959ZM325.864 23.1758C324.575 23.1758 323.526 22.7539 322.718 21.9102C321.909 21.0605 321.505 19.9268 321.505 18.5088V18.21C321.505 17.2666 321.684 16.4258 322.041 15.6875C322.404 14.9434 322.908 14.3633 323.553 13.9473C324.203 13.5254 324.906 13.3145 325.662 13.3145C326.898 13.3145 327.859 13.7217 328.545 14.5361C329.23 15.3506 329.573 16.5166 329.573 18.0342V18.7109H323.131C323.154 19.6484 323.427 20.4072 323.948 20.9873C324.476 21.5615 325.144 21.8486 325.952 21.8486C326.526 21.8486 327.013 21.7314 327.411 21.4971C327.81 21.2627 328.158 20.9521 328.457 20.5654L329.45 21.3389C328.653 22.5635 327.458 23.1758 325.864 23.1758ZM325.662 14.6504C325.006 14.6504 324.455 14.8906 324.01 15.3711C323.564 15.8457 323.289 16.5137 323.184 17.375H327.947V17.252C327.9 16.4258 327.678 15.7871 327.279 15.3359C326.881 14.8789 326.342 14.6504 325.662 14.6504ZM332.992 13.4902L333.036 14.5449C333.733 13.7246 334.674 13.3145 335.857 13.3145C337.188 13.3145 338.093 13.8242 338.573 14.8438C338.89 14.3867 339.3 14.0176 339.804 13.7363C340.313 13.4551 340.914 13.3145 341.605 13.3145C343.691 13.3145 344.752 14.4189 344.787 16.6279V23H343.161V16.7246C343.161 16.0449 343.006 15.5381 342.695 15.2041C342.385 14.8643 341.863 14.6943 341.131 14.6943C340.527 14.6943 340.026 14.876 339.628 15.2393C339.229 15.5967 338.998 16.0801 338.934 16.6895V23H337.299V16.7686C337.299 15.3857 336.622 14.6943 335.269 14.6943C334.202 14.6943 333.473 15.1484 333.08 16.0566V23H331.454V13.4902H332.992ZM353.119 23C353.025 22.8125 352.949 22.4785 352.891 21.998C352.135 22.7832 351.232 23.1758 350.184 23.1758C349.246 23.1758 348.476 22.9121 347.872 22.3848C347.274 21.8516 346.976 21.1777 346.976 20.3633C346.976 19.373 347.351 18.6055 348.101 18.0605C348.856 17.5098 349.917 17.2344 351.282 17.2344H352.864V16.4873C352.864 15.9189 352.694 15.4678 352.354 15.1338C352.015 14.7939 351.514 14.624 350.852 14.624C350.271 14.624 349.785 14.7705 349.393 15.0635C349 15.3564 348.804 15.7109 348.804 16.127H347.169C347.169 15.6523 347.336 15.1953 347.67 14.7559C348.01 14.3105 348.467 13.959 349.041 13.7012C349.621 13.4434 350.257 13.3145 350.948 13.3145C352.044 13.3145 352.902 13.5898 353.523 14.1406C354.145 14.6855 354.467 15.4385 354.49 16.3994V20.7764C354.49 21.6494 354.602 22.3438 354.824 22.8594V23H353.119ZM350.421 21.7607C350.931 21.7607 351.414 21.6289 351.871 21.3652C352.328 21.1016 352.659 20.7588 352.864 20.3369V18.3857H351.59C349.598 18.3857 348.602 18.9688 348.602 20.1348C348.602 20.6445 348.771 21.043 349.111 21.3301C349.451 21.6172 349.888 21.7607 350.421 21.7607ZM358.577 13.4902L358.63 14.6855C359.356 13.7715 360.306 13.3145 361.478 13.3145C363.487 13.3145 364.501 14.4482 364.519 16.7158V23H362.893V16.707C362.887 16.0215 362.729 15.5146 362.418 15.1865C362.113 14.8584 361.636 14.6943 360.985 14.6943C360.458 14.6943 359.995 14.835 359.597 15.1162C359.198 15.3975 358.888 15.7666 358.665 16.2236V23H357.039V13.4902H358.577ZM372.842 23C372.748 22.8125 372.672 22.4785 372.613 21.998C371.857 22.7832 370.955 23.1758 369.906 23.1758C368.969 23.1758 368.198 22.9121 367.595 22.3848C366.997 21.8516 366.698 21.1777 366.698 20.3633C366.698 19.373 367.073 18.6055 367.823 18.0605C368.579 17.5098 369.64 17.2344 371.005 17.2344H372.587V16.4873C372.587 15.9189 372.417 15.4678 372.077 15.1338C371.737 14.7939 371.236 14.624 370.574 14.624C369.994 14.624 369.508 14.7705 369.115 15.0635C368.723 15.3564 368.526 15.7109 368.526 16.127H366.892C366.892 15.6523 367.059 15.1953 367.393 14.7559C367.732 14.3105 368.189 13.959 368.764 13.7012C369.344 13.4434 369.979 13.3145 370.671 13.3145C371.767 13.3145 372.625 13.5898 373.246 14.1406C373.867 14.6855 374.189 15.4385 374.213 16.3994V20.7764C374.213 21.6494 374.324 22.3438 374.547 22.8594V23H372.842ZM370.144 21.7607C370.653 21.7607 371.137 21.6289 371.594 21.3652C372.051 21.1016 372.382 20.7588 372.587 20.3369V18.3857H371.312C369.32 18.3857 368.324 18.9688 368.324 20.1348C368.324 20.6445 368.494 21.043 368.834 21.3301C369.174 21.6172 369.61 21.7607 370.144 21.7607ZM388.548 19.6602H383.187L381.982 23H380.242L385.129 10.2031H386.605L391.501 23H389.77L388.548 19.6602ZM383.696 18.2715H388.047L385.867 12.2861L383.696 18.2715ZM396.783 21.8486C397.363 21.8486 397.87 21.6729 398.304 21.3213C398.737 20.9697 398.978 20.5303 399.024 20.0029H400.562C400.533 20.5479 400.346 21.0664 400 21.5586C399.654 22.0508 399.191 22.4434 398.611 22.7363C398.037 23.0293 397.428 23.1758 396.783 23.1758C395.488 23.1758 394.457 22.7451 393.689 21.8838C392.928 21.0166 392.547 19.833 392.547 18.333V18.0605C392.547 17.1348 392.717 16.3115 393.057 15.5908C393.396 14.8701 393.883 14.3105 394.516 13.9121C395.154 13.5137 395.907 13.3145 396.774 13.3145C397.841 13.3145 398.726 13.6338 399.429 14.2725C400.138 14.9111 400.516 15.7402 400.562 16.7598H399.024C398.978 16.1445 398.743 15.6406 398.321 15.248C397.905 14.8496 397.39 14.6504 396.774 14.6504C395.948 14.6504 395.307 14.9492 394.85 15.5469C394.398 16.1387 394.173 16.9971 394.173 18.1221V18.4297C394.173 19.5254 394.398 20.3691 394.85 20.9609C395.301 21.5527 395.945 21.8486 396.783 21.8486ZM404.597 11.1875V13.4902H406.372V14.7471H404.597V20.6445C404.597 21.0254 404.676 21.3125 404.834 21.5059C404.992 21.6934 405.262 21.7871 405.643 21.7871C405.83 21.7871 406.088 21.752 406.416 21.6816V23C405.988 23.1172 405.572 23.1758 405.168 23.1758C404.441 23.1758 403.894 22.9561 403.524 22.5166C403.155 22.0771 402.971 21.4531 402.971 20.6445V14.7471H401.239V13.4902H402.971V11.1875H404.597ZM414.15 22.0596C413.518 22.8037 412.589 23.1758 411.364 23.1758C410.351 23.1758 409.577 22.8828 409.044 22.2969C408.517 21.7051 408.25 20.832 408.244 19.6777V13.4902H409.87V19.6338C409.87 21.0752 410.456 21.7959 411.628 21.7959C412.87 21.7959 413.696 21.333 414.106 20.4072V13.4902H415.732V23H414.186L414.15 22.0596ZM424.082 23C423.988 22.8125 423.912 22.4785 423.854 21.998C423.098 22.7832 422.195 23.1758 421.146 23.1758C420.209 23.1758 419.438 22.9121 418.835 22.3848C418.237 21.8516 417.938 21.1777 417.938 20.3633C417.938 19.373 418.313 18.6055 419.063 18.0605C419.819 17.5098 420.88 17.2344 422.245 17.2344H423.827V16.4873C423.827 15.9189 423.657 15.4678 423.317 15.1338C422.978 14.7939 422.477 14.624 421.814 14.624C421.234 14.624 420.748 14.7705 420.355 15.0635C419.963 15.3564 419.767 15.7109 419.767 16.127H418.132C418.132 15.6523 418.299 15.1953 418.633 14.7559C418.973 14.3105 419.43 13.959 420.004 13.7012C420.584 13.4434 421.22 13.3145 421.911 13.3145C423.007 13.3145 423.865 13.5898 424.486 14.1406C425.107 14.6855 425.43 15.4385 425.453 16.3994V20.7764C425.453 21.6494 425.564 22.3438 425.787 22.8594V23H424.082ZM421.384 21.7607C421.894 21.7607 422.377 21.6289 422.834 21.3652C423.291 21.1016 423.622 20.7588 423.827 20.3369V18.3857H422.553C420.561 18.3857 419.564 18.9688 419.564 20.1348C419.564 20.6445 419.734 21.043 420.074 21.3301C420.414 21.6172 420.851 21.7607 421.384 21.7607ZM429.769 23H428.143V9.5H429.769V23ZM436.448 18.166C436.448 16.707 436.794 15.5352 437.485 14.6504C438.177 13.7598 439.082 13.3145 440.201 13.3145C441.314 13.3145 442.196 13.6953 442.847 14.457V9.5H444.473V23H442.979L442.899 21.9805C442.249 22.7773 441.344 23.1758 440.184 23.1758C439.082 23.1758 438.183 22.7246 437.485 21.8223C436.794 20.9199 436.448 19.7422 436.448 18.2891V18.166ZM438.074 18.3506C438.074 19.4287 438.297 20.2725 438.742 20.8818C439.188 21.4912 439.803 21.7959 440.588 21.7959C441.619 21.7959 442.372 21.333 442.847 20.4072V16.0391C442.36 15.1426 441.613 14.6943 440.605 14.6943C439.809 14.6943 439.188 15.002 438.742 15.6172C438.297 16.2324 438.074 17.1436 438.074 18.3506ZM450.95 23.1758C449.661 23.1758 448.612 22.7539 447.804 21.9102C446.995 21.0605 446.591 19.9268 446.591 18.5088V18.21C446.591 17.2666 446.77 16.4258 447.127 15.6875C447.49 14.9434 447.994 14.3633 448.639 13.9473C449.289 13.5254 449.992 13.3145 450.748 13.3145C451.984 13.3145 452.945 13.7217 453.631 14.5361C454.316 15.3506 454.659 16.5166 454.659 18.0342V18.7109H448.217C448.24 19.6484 448.513 20.4072 449.034 20.9873C449.562 21.5615 450.229 21.8486 451.038 21.8486C451.612 21.8486 452.099 21.7314 452.497 21.4971C452.896 21.2627 453.244 20.9521 453.543 20.5654L454.536 21.3389C453.739 22.5635 452.544 23.1758 450.95 23.1758ZM450.748 14.6504C450.092 14.6504 449.541 14.8906 449.096 15.3711C448.65 15.8457 448.375 16.5137 448.27 17.375H453.033V17.252C452.986 16.4258 452.764 15.7871 452.365 15.3359C451.967 14.8789 451.428 14.6504 450.748 14.6504ZM458.315 23H456.689V9.5H458.315V23ZM315.045 42.8486C315.625 42.8486 316.132 42.6729 316.565 42.3213C316.999 41.9697 317.239 41.5303 317.286 41.0029H318.824C318.795 41.5479 318.607 42.0664 318.262 42.5586C317.916 43.0508 317.453 43.4434 316.873 43.7363C316.299 44.0293 315.689 44.1758 315.045 44.1758C313.75 44.1758 312.719 43.7451 311.951 42.8838C311.189 42.0166 310.809 40.833 310.809 39.333V39.0605C310.809 38.1348 310.979 37.3115 311.318 36.5908C311.658 35.8701 312.145 35.3105 312.777 34.9121C313.416 34.5137 314.169 34.3145 315.036 34.3145C316.103 34.3145 316.987 34.6338 317.69 35.2725C318.399 35.9111 318.777 36.7402 318.824 37.7598H317.286C317.239 37.1445 317.005 36.6406 316.583 36.248C316.167 35.8496 315.651 35.6504 315.036 35.6504C314.21 35.6504 313.568 35.9492 313.111 36.5469C312.66 37.1387 312.435 37.9971 312.435 39.1221V39.4297C312.435 40.5254 312.66 41.3691 313.111 41.9609C313.562 42.5527 314.207 42.8486 315.045 42.8486ZM326.523 44C326.43 43.8125 326.354 43.4785 326.295 42.998C325.539 43.7832 324.637 44.1758 323.588 44.1758C322.65 44.1758 321.88 43.9121 321.276 43.3848C320.679 42.8516 320.38 42.1777 320.38 41.3633C320.38 40.373 320.755 39.6055 321.505 39.0605C322.261 38.5098 323.321 38.2344 324.687 38.2344H326.269V37.4873C326.269 36.9189 326.099 36.4678 325.759 36.1338C325.419 35.7939 324.918 35.624 324.256 35.624C323.676 35.624 323.189 35.7705 322.797 36.0635C322.404 36.3564 322.208 36.7109 322.208 37.127H320.573C320.573 36.6523 320.74 36.1953 321.074 35.7559C321.414 35.3105 321.871 34.959 322.445 34.7012C323.025 34.4434 323.661 34.3145 324.353 34.3145C325.448 34.3145 326.307 34.5898 326.928 35.1406C327.549 35.6855 327.871 36.4385 327.895 37.3994V41.7764C327.895 42.6494 328.006 43.3438 328.229 43.8594V44H326.523ZM323.825 42.7607C324.335 42.7607 324.818 42.6289 325.275 42.3652C325.732 42.1016 326.063 41.7588 326.269 41.3369V39.3857H324.994C323.002 39.3857 322.006 39.9688 322.006 41.1348C322.006 41.6445 322.176 42.043 322.516 42.3301C322.855 42.6172 323.292 42.7607 323.825 42.7607ZM332.21 44H330.584V30.5H332.21V44ZM338.767 44.1758C337.478 44.1758 336.429 43.7539 335.62 42.9102C334.812 42.0605 334.407 40.9268 334.407 39.5088V39.21C334.407 38.2666 334.586 37.4258 334.943 36.6875C335.307 35.9434 335.811 35.3633 336.455 34.9473C337.105 34.5254 337.809 34.3145 338.564 34.3145C339.801 34.3145 340.762 34.7217 341.447 35.5361C342.133 36.3506 342.476 37.5166 342.476 39.0342V39.7109H336.033C336.057 40.6484 336.329 41.4072 336.851 41.9873C337.378 42.5615 338.046 42.8486 338.854 42.8486C339.429 42.8486 339.915 42.7314 340.313 42.4971C340.712 42.2627 341.061 41.9521 341.359 41.5654L342.353 42.3389C341.556 43.5635 340.36 44.1758 338.767 44.1758ZM338.564 35.6504C337.908 35.6504 337.357 35.8906 336.912 36.3711C336.467 36.8457 336.191 37.5137 336.086 38.375H340.85V38.252C340.803 37.4258 340.58 36.7871 340.182 36.3359C339.783 35.8789 339.244 35.6504 338.564 35.6504ZM345.903 34.4902L345.956 35.6855C346.683 34.7715 347.632 34.3145 348.804 34.3145C350.813 34.3145 351.827 35.4482 351.845 37.7158V44H350.219V37.707C350.213 37.0215 350.055 36.5146 349.744 36.1865C349.439 35.8584 348.962 35.6943 348.312 35.6943C347.784 35.6943 347.321 35.835 346.923 36.1162C346.524 36.3975 346.214 36.7666 345.991 37.2236V44H344.365V34.4902H345.903ZM353.901 39.166C353.901 37.707 354.247 36.5352 354.938 35.6504C355.63 34.7598 356.535 34.3145 357.654 34.3145C358.768 34.3145 359.649 34.6953 360.3 35.457V30.5H361.926V44H360.432L360.353 42.9805C359.702 43.7773 358.797 44.1758 357.637 44.1758C356.535 44.1758 355.636 43.7246 354.938 42.8223C354.247 41.9199 353.901 40.7422 353.901 39.2891V39.166ZM355.527 39.3506C355.527 40.4287 355.75 41.2725 356.195 41.8818C356.641 42.4912 357.256 42.7959 358.041 42.7959C359.072 42.7959 359.825 42.333 360.3 41.4072V37.0391C359.813 36.1426 359.066 35.6943 358.059 35.6943C357.262 35.6943 356.641 36.002 356.195 36.6172C355.75 37.2324 355.527 38.1436 355.527 39.3506ZM370.328 44C370.234 43.8125 370.158 43.4785 370.1 42.998C369.344 43.7832 368.441 44.1758 367.393 44.1758C366.455 44.1758 365.685 43.9121 365.081 43.3848C364.483 42.8516 364.185 42.1777 364.185 41.3633C364.185 40.373 364.56 39.6055 365.31 39.0605C366.065 38.5098 367.126 38.2344 368.491 38.2344H370.073V37.4873C370.073 36.9189 369.903 36.4678 369.563 36.1338C369.224 35.7939 368.723 35.624 368.061 35.624C367.48 35.624 366.994 35.7705 366.602 36.0635C366.209 36.3564 366.013 36.7109 366.013 37.127H364.378C364.378 36.6523 364.545 36.1953 364.879 35.7559C365.219 35.3105 365.676 34.959 366.25 34.7012C366.83 34.4434 367.466 34.3145 368.157 34.3145C369.253 34.3145 370.111 34.5898 370.732 35.1406C371.354 35.6855 371.676 36.4385 371.699 37.3994V41.7764C371.699 42.6494 371.811 43.3438 372.033 43.8594V44H370.328ZM367.63 42.7607C368.14 42.7607 368.623 42.6289 369.08 42.3652C369.537 42.1016 369.868 41.7588 370.073 41.3369V39.3857H368.799C366.807 39.3857 365.811 39.9688 365.811 41.1348C365.811 41.6445 365.98 42.043 366.32 42.3301C366.66 42.6172 367.097 42.7607 367.63 42.7607ZM378.845 35.9492C378.599 35.9082 378.332 35.8877 378.045 35.8877C376.979 35.8877 376.255 36.3418 375.874 37.25V44H374.248V34.4902H375.83L375.856 35.5889C376.39 34.7393 377.146 34.3145 378.124 34.3145C378.44 34.3145 378.681 34.3555 378.845 34.4375V35.9492ZM382.114 44H380.488V34.4902H382.114V44ZM380.356 31.9678C380.356 31.7041 380.436 31.4814 380.594 31.2998C380.758 31.1182 380.998 31.0273 381.314 31.0273C381.631 31.0273 381.871 31.1182 382.035 31.2998C382.199 31.4814 382.281 31.7041 382.281 31.9678C382.281 32.2314 382.199 32.4512 382.035 32.627C381.871 32.8027 381.631 32.8906 381.314 32.8906C380.998 32.8906 380.758 32.8027 380.594 32.627C380.436 32.4512 380.356 32.2314 380.356 31.9678ZM384.294 39.1572C384.294 38.2256 384.476 37.3877 384.839 36.6436C385.208 35.8994 385.718 35.3252 386.368 34.9209C387.024 34.5166 387.771 34.3145 388.609 34.3145C389.904 34.3145 390.95 34.7627 391.747 35.6592C392.55 36.5557 392.951 37.748 392.951 39.2363V39.3506C392.951 40.2764 392.772 41.1084 392.415 41.8467C392.063 42.5791 391.557 43.1504 390.895 43.5605C390.238 43.9707 389.482 44.1758 388.627 44.1758C387.338 44.1758 386.292 43.7275 385.489 42.8311C384.692 41.9346 384.294 40.748 384.294 39.2715V39.1572ZM385.929 39.3506C385.929 40.4053 386.172 41.252 386.658 41.8906C387.15 42.5293 387.807 42.8486 388.627 42.8486C389.453 42.8486 390.109 42.5264 390.596 41.8818C391.082 41.2314 391.325 40.3232 391.325 39.1572C391.325 38.1143 391.076 37.2705 390.578 36.626C390.086 35.9756 389.43 35.6504 388.609 35.6504C387.807 35.6504 387.159 35.9697 386.667 36.6084C386.175 37.2471 385.929 38.1611 385.929 39.3506ZM400.976 42.6201H408.297V44H398.98V42.7344L405.994 32.5918H399.095V31.2031H408.016V32.4424L400.976 42.6201ZM416.102 44C416.008 43.8125 415.932 43.4785 415.873 42.998C415.117 43.7832 414.215 44.1758 413.166 44.1758C412.229 44.1758 411.458 43.9121 410.854 43.3848C410.257 42.8516 409.958 42.1777 409.958 41.3633C409.958 40.373 410.333 39.6055 411.083 39.0605C411.839 38.5098 412.899 38.2344 414.265 38.2344H415.847V37.4873C415.847 36.9189 415.677 36.4678 415.337 36.1338C414.997 35.7939 414.496 35.624 413.834 35.624C413.254 35.624 412.768 35.7705 412.375 36.0635C411.982 36.3564 411.786 36.7109 411.786 37.127H410.151C410.151 36.6523 410.318 36.1953 410.652 35.7559C410.992 35.3105 411.449 34.959 412.023 34.7012C412.604 34.4434 413.239 34.3145 413.931 34.3145C415.026 34.3145 415.885 34.5898 416.506 35.1406C417.127 35.6855 417.449 36.4385 417.473 37.3994V41.7764C417.473 42.6494 417.584 43.3438 417.807 43.8594V44H416.102ZM413.403 42.7607C413.913 42.7607 414.396 42.6289 414.854 42.3652C415.311 42.1016 415.642 41.7588 415.847 41.3369V39.3857H414.572C412.58 39.3857 411.584 39.9688 411.584 41.1348C411.584 41.6445 411.754 42.043 412.094 42.3301C412.434 42.6172 412.87 42.7607 413.403 42.7607ZM428.055 39.3506C428.055 40.7979 427.724 41.9639 427.062 42.8486C426.399 43.7334 425.503 44.1758 424.372 44.1758C423.218 44.1758 422.31 43.8096 421.647 43.0771V47.6562H420.021V34.4902H421.507L421.586 35.5449C422.248 34.7246 423.168 34.3145 424.346 34.3145C425.488 34.3145 426.391 34.7451 427.053 35.6064C427.721 36.4678 428.055 37.666 428.055 39.2012V39.3506ZM426.429 39.166C426.429 38.0938 426.2 37.2471 425.743 36.626C425.286 36.0049 424.659 35.6943 423.862 35.6943C422.878 35.6943 422.14 36.1309 421.647 37.0039V41.5479C422.134 42.415 422.878 42.8486 423.88 42.8486C424.659 42.8486 425.277 42.541 425.734 41.9258C426.197 41.3047 426.429 40.3848 426.429 39.166ZM429.698 39.1572C429.698 38.2256 429.88 37.3877 430.243 36.6436C430.612 35.8994 431.122 35.3252 431.772 34.9209C432.429 34.5166 433.176 34.3145 434.014 34.3145C435.309 34.3145 436.354 34.7627 437.151 35.6592C437.954 36.5557 438.355 37.748 438.355 39.2363V39.3506C438.355 40.2764 438.177 41.1084 437.819 41.8467C437.468 42.5791 436.961 43.1504 436.299 43.5605C435.643 43.9707 434.887 44.1758 434.031 44.1758C432.742 44.1758 431.696 43.7275 430.894 42.8311C430.097 41.9346 429.698 40.748 429.698 39.2715V39.1572ZM431.333 39.3506C431.333 40.4053 431.576 41.252 432.062 41.8906C432.555 42.5293 433.211 42.8486 434.031 42.8486C434.857 42.8486 435.514 42.5264 436 41.8818C436.486 41.2314 436.729 40.3232 436.729 39.1572C436.729 38.1143 436.48 37.2705 435.982 36.626C435.49 35.9756 434.834 35.6504 434.014 35.6504C433.211 35.6504 432.563 35.9697 432.071 36.6084C431.579 37.2471 431.333 38.1611 431.333 39.3506ZM442.601 32.1875V34.4902H444.376V35.7471H442.601V41.6445C442.601 42.0254 442.68 42.3125 442.838 42.5059C442.996 42.6934 443.266 42.7871 443.646 42.7871C443.834 42.7871 444.092 42.752 444.42 42.6816V44C443.992 44.1172 443.576 44.1758 443.172 44.1758C442.445 44.1758 441.897 43.9561 441.528 43.5166C441.159 43.0771 440.975 42.4531 440.975 41.6445V35.7471H439.243V34.4902H440.975V32.1875H442.601ZM450.229 44.1758C448.94 44.1758 447.892 43.7539 447.083 42.9102C446.274 42.0605 445.87 40.9268 445.87 39.5088V39.21C445.87 38.2666 446.049 37.4258 446.406 36.6875C446.77 35.9434 447.273 35.3633 447.918 34.9473C448.568 34.5254 449.271 34.3145 450.027 34.3145C451.264 34.3145 452.225 34.7217 452.91 35.5361C453.596 36.3506 453.938 37.5166 453.938 39.0342V39.7109H447.496C447.52 40.6484 447.792 41.4072 448.313 41.9873C448.841 42.5615 449.509 42.8486 450.317 42.8486C450.892 42.8486 451.378 42.7314 451.776 42.4971C452.175 42.2627 452.523 41.9521 452.822 41.5654L453.815 42.3389C453.019 43.5635 451.823 44.1758 450.229 44.1758ZM450.027 35.6504C449.371 35.6504 448.82 35.8906 448.375 36.3711C447.93 36.8457 447.654 37.5137 447.549 38.375H452.312V38.252C452.266 37.4258 452.043 36.7871 451.645 36.3359C451.246 35.8789 450.707 35.6504 450.027 35.6504ZM459.643 42.8486C460.223 42.8486 460.729 42.6729 461.163 42.3213C461.597 41.9697 461.837 41.5303 461.884 41.0029H463.422C463.393 41.5479 463.205 42.0664 462.859 42.5586C462.514 43.0508 462.051 43.4434 461.471 43.7363C460.896 44.0293 460.287 44.1758 459.643 44.1758C458.348 44.1758 457.316 43.7451 456.549 42.8838C455.787 42.0166 455.406 40.833 455.406 39.333V39.0605C455.406 38.1348 455.576 37.3115 455.916 36.5908C456.256 35.8701 456.742 35.3105 457.375 34.9121C458.014 34.5137 458.767 34.3145 459.634 34.3145C460.7 34.3145 461.585 34.6338 462.288 35.2725C462.997 35.9111 463.375 36.7402 463.422 37.7598H461.884C461.837 37.1445 461.603 36.6406 461.181 36.248C460.765 35.8496 460.249 35.6504 459.634 35.6504C458.808 35.6504 458.166 35.9492 457.709 36.5469C457.258 37.1387 457.032 37.9971 457.032 39.1221V39.4297C457.032 40.5254 457.258 41.3691 457.709 41.9609C458.16 42.5527 458.805 42.8486 459.643 42.8486ZM464.819 39.1572C464.819 38.2256 465.001 37.3877 465.364 36.6436C465.733 35.8994 466.243 35.3252 466.894 34.9209C467.55 34.5166 468.297 34.3145 469.135 34.3145C470.43 34.3145 471.476 34.7627 472.272 35.6592C473.075 36.5557 473.477 37.748 473.477 39.2363V39.3506C473.477 40.2764 473.298 41.1084 472.94 41.8467C472.589 42.5791 472.082 43.1504 471.42 43.5605C470.764 43.9707 470.008 44.1758 469.152 44.1758C467.863 44.1758 466.817 43.7275 466.015 42.8311C465.218 41.9346 464.819 40.748 464.819 39.2715V39.1572ZM466.454 39.3506C466.454 40.4053 466.697 41.252 467.184 41.8906C467.676 42.5293 468.332 42.8486 469.152 42.8486C469.979 42.8486 470.635 42.5264 471.121 41.8818C471.607 41.2314 471.851 40.3232 471.851 39.1572C471.851 38.1143 471.602 37.2705 471.104 36.626C470.611 35.9756 469.955 35.6504 469.135 35.6504C468.332 35.6504 467.685 35.9697 467.192 36.6084C466.7 37.2471 466.454 38.1611 466.454 39.3506Z" fill="black"/>
</svg>
